<svg 
 xmlns="http://www.w3.org/2000/svg"
 xmlns:xlink="http://www.w3.org/1999/xlink"
 width="50px" height="50px">
<path fill-rule="evenodd"  fill="rgb(226, 60, 36)"
 d="M49.793,28.782 L47.488,31.786 L47.747,35.564 C47.765,35.838 47.638,36.103 47.411,36.259 L44.291,38.403 L43.369,42.076 C43.302,42.343 43.099,42.554 42.835,42.633 L39.205,43.709 L37.194,46.917 C37.098,47.069 36.955,47.181 36.790,47.238 C36.702,47.269 36.609,47.284 36.513,47.281 L32.728,47.183 L29.824,49.612 C29.613,49.789 29.324,49.841 29.064,49.749 L25.495,48.485 L21.983,49.898 C21.728,50.000 21.437,49.961 21.218,49.794 L18.214,47.489 L14.437,47.747 C14.162,47.766 13.898,47.639 13.742,47.412 L11.597,44.291 L7.925,43.370 C7.658,43.303 7.446,43.099 7.368,42.835 L6.292,39.205 L3.084,37.194 C2.851,37.048 2.712,36.789 2.719,36.514 L2.818,32.729 L0.389,29.825 C0.212,29.613 0.160,29.325 0.252,29.065 L1.516,25.496 L0.103,21.983 C-0.000,21.728 0.040,21.437 0.207,21.218 L2.512,18.214 L2.253,14.437 C2.235,14.162 2.362,13.898 2.589,13.742 L5.709,11.597 L6.631,7.925 C6.698,7.658 6.900,7.446 7.165,7.368 L10.795,6.292 L12.807,3.084 C12.953,2.851 13.211,2.712 13.487,2.719 L17.271,2.818 L20.175,0.389 C20.387,0.212 20.676,0.160 20.935,0.252 L24.504,1.515 L28.017,0.102 C28.273,0.000 28.563,0.039 28.782,0.207 L31.786,2.511 L35.563,2.253 C35.838,2.234 36.102,2.362 36.258,2.589 L38.403,5.709 L42.075,6.631 C42.342,6.698 42.554,6.901 42.632,7.165 L43.708,10.795 L46.916,12.806 C47.149,12.953 47.288,13.211 47.280,13.487 L47.182,17.272 L49.611,20.176 C49.788,20.387 49.840,20.676 49.748,20.936 L48.484,24.505 L49.897,28.017 C50.000,28.273 49.960,28.564 49.793,28.782 ZM46.917,24.262 L48.131,20.835 L45.798,18.045 C45.676,17.900 45.612,17.715 45.616,17.525 L45.711,13.891 L42.631,11.959 C42.470,11.858 42.352,11.702 42.298,11.520 L41.265,8.034 L37.738,7.149 C37.554,7.102 37.393,6.991 37.286,6.834 L35.226,3.838 L31.598,4.086 C31.409,4.099 31.221,4.042 31.071,3.927 L28.186,1.714 L24.813,3.071 C24.637,3.141 24.441,3.146 24.262,3.082 L20.834,1.869 L18.045,4.202 C17.900,4.324 17.715,4.388 17.525,4.383 L13.890,4.288 L11.959,7.369 C11.858,7.530 11.702,7.648 11.520,7.702 L8.034,8.735 L7.149,12.262 C7.103,12.446 6.991,12.607 6.835,12.714 L3.838,14.774 L4.086,18.402 C4.099,18.591 4.043,18.779 3.927,18.929 L1.714,21.814 L3.071,25.188 C3.142,25.364 3.146,25.559 3.083,25.738 L1.869,29.166 L4.202,31.955 C4.324,32.100 4.388,32.286 4.383,32.475 L4.289,36.110 L7.369,38.042 C7.530,38.142 7.648,38.298 7.702,38.480 L8.735,41.967 L12.262,42.852 C12.446,42.898 12.607,43.010 12.714,43.166 L14.774,46.162 L18.402,45.914 C18.591,45.901 18.779,45.958 18.929,46.074 L21.814,48.287 L25.187,46.930 C25.363,46.859 25.559,46.855 25.738,46.918 L29.166,48.132 L31.955,45.799 C32.027,45.738 32.110,45.691 32.198,45.661 C32.286,45.630 32.380,45.615 32.475,45.617 L36.110,45.712 L38.041,42.632 C38.142,42.471 38.298,42.352 38.480,42.298 L41.966,41.265 L42.851,37.739 C42.897,37.555 43.009,37.394 43.165,37.286 L46.162,35.226 L45.914,31.599 C45.901,31.409 45.957,31.222 46.073,31.071 L48.286,28.186 L46.929,24.813 C46.858,24.637 46.854,24.441 46.917,24.262 ZM32.277,43.502 C32.024,43.602 31.769,43.697 31.513,43.786 C27.088,45.328 22.288,45.266 17.907,43.595 C17.505,43.442 17.303,42.992 17.456,42.590 C17.610,42.188 18.060,41.986 18.462,42.139 C22.733,43.768 27.437,43.737 31.705,42.053 C35.999,40.359 39.471,37.135 41.481,32.976 C43.307,29.197 43.782,24.870 42.819,20.793 C41.869,16.774 39.572,13.159 36.350,10.616 C36.012,10.350 35.955,9.860 36.221,9.522 C36.488,9.184 36.978,9.126 37.316,9.393 C40.812,12.153 43.305,16.075 44.336,20.435 C45.381,24.859 44.865,29.553 42.884,33.654 C40.703,38.167 36.936,41.664 32.277,43.502 ZM36.146,20.541 C36.528,20.823 36.832,21.219 36.999,21.700 C37.289,22.531 37.101,23.416 36.580,24.052 C36.903,24.325 37.160,24.685 37.308,25.112 C37.598,25.944 37.410,26.829 36.889,27.465 C37.212,27.738 37.469,28.097 37.617,28.525 C38.060,29.796 37.386,31.190 36.115,31.633 L24.100,35.819 C24.004,36.377 23.616,36.868 23.044,37.067 L18.336,38.708 C17.497,39.000 16.578,38.556 16.286,37.717 L11.911,25.161 C11.619,24.323 12.063,23.403 12.902,23.111 L17.610,21.470 C17.866,21.381 18.130,21.361 18.381,21.400 C18.693,20.905 18.922,20.441 19.069,20.112 C19.348,19.485 19.739,18.978 20.230,18.605 C21.481,17.655 22.185,16.598 22.555,15.879 C23.007,15.001 23.095,14.363 23.066,14.197 C22.820,13.479 22.867,12.709 23.200,12.027 C23.534,11.345 24.112,10.833 24.831,10.583 C24.839,10.580 24.848,10.577 24.856,10.574 C25.602,10.322 26.396,10.398 27.094,10.787 C27.857,11.214 28.410,11.961 28.612,12.839 C28.942,14.275 28.691,16.091 27.959,17.864 L32.916,16.137 C34.404,15.619 36.036,16.407 36.554,17.895 C36.877,18.822 36.692,19.806 36.146,20.541 ZM35.022,28.494 C34.615,28.636 34.171,28.421 34.030,28.015 C33.888,27.608 34.103,27.164 34.509,27.023 L35.294,26.749 C35.754,26.589 35.997,26.085 35.837,25.625 C35.677,25.165 35.172,24.921 34.713,25.081 C34.306,25.223 33.862,25.008 33.721,24.602 C33.579,24.196 33.794,23.751 34.200,23.610 L34.985,23.337 C35.445,23.176 35.688,22.672 35.528,22.212 C35.368,21.752 34.864,21.509 34.404,21.669 C33.997,21.810 33.553,21.596 33.412,21.189 C33.270,20.783 33.485,20.339 33.891,20.197 L34.283,20.061 C34.960,19.825 35.318,19.084 35.082,18.407 C34.847,17.731 34.105,17.373 33.429,17.608 L26.637,19.975 C26.325,20.083 25.979,19.984 25.773,19.726 C25.566,19.469 25.545,19.109 25.719,18.829 C26.902,16.920 27.442,14.705 27.093,13.187 C26.991,12.745 26.708,12.357 26.334,12.148 C26.116,12.026 25.769,11.910 25.355,12.050 C25.021,12.167 24.753,12.398 24.600,12.711 C24.449,13.021 24.428,13.371 24.542,13.697 C24.757,14.315 24.554,15.353 24.000,16.475 C23.557,17.369 22.707,18.681 21.172,19.846 C20.892,20.058 20.664,20.360 20.493,20.746 C20.312,21.152 20.021,21.738 19.618,22.357 C19.633,22.391 19.648,22.425 19.660,22.461 L20.207,24.030 C20.349,24.436 20.134,24.881 19.728,25.022 C19.321,25.164 18.877,24.949 18.736,24.543 L18.189,22.973 C18.179,22.946 18.150,22.932 18.123,22.941 L13.414,24.582 C13.387,24.591 13.373,24.621 13.382,24.648 L17.757,37.205 C17.766,37.232 17.796,37.246 17.823,37.236 L22.531,35.596 C22.559,35.586 22.573,35.557 22.564,35.530 L19.829,27.682 C19.688,27.276 19.902,26.832 20.309,26.690 C20.715,26.549 21.159,26.763 21.301,27.169 L23.779,34.282 L35.603,30.162 C36.063,30.002 36.306,29.497 36.146,29.037 C35.986,28.578 35.481,28.334 35.022,28.494 ZM20.078,33.751 C20.220,34.157 20.002,34.607 19.596,34.748 C19.190,34.890 18.740,34.673 18.599,34.266 C18.457,33.860 18.674,33.410 19.081,33.269 C19.487,33.127 19.937,33.345 20.078,33.751 ZM34.286,8.902 C34.087,8.971 33.861,8.960 33.660,8.853 C33.427,8.728 33.188,8.606 32.950,8.490 C32.711,8.375 32.467,8.264 32.224,8.159 C31.829,7.988 31.647,7.530 31.818,7.135 C31.988,6.740 32.447,6.558 32.842,6.728 C33.105,6.842 33.369,6.963 33.628,7.088 C33.886,7.212 34.145,7.344 34.398,7.480 C34.777,7.683 34.919,8.156 34.715,8.535 C34.619,8.714 34.463,8.840 34.286,8.902 ZM29.171,7.147 C25.177,6.203 20.918,6.649 17.178,8.403 C13.386,10.181 10.291,13.242 8.465,17.021 C6.455,21.181 6.087,25.904 7.428,30.321 C8.761,34.713 11.660,38.417 15.589,40.751 C15.959,40.971 16.081,41.449 15.861,41.819 C15.764,41.983 15.616,42.099 15.448,42.157 C15.238,42.230 14.999,42.213 14.794,42.091 C10.529,39.558 7.384,35.538 5.937,30.774 C4.482,25.981 4.881,20.856 7.062,16.343 C9.043,12.243 12.401,8.922 16.517,6.992 C20.573,5.090 25.194,4.607 29.530,5.631 C29.948,5.730 30.208,6.149 30.109,6.568 C30.010,6.987 29.590,7.246 29.171,7.147 Z"/>
</svg>