<svg xmlns="http://www.w3.org/2000/svg" width="43px" height="26px" viewBox="0 0 43 26"><path fill-rule="evenodd"  fill="rgb(255, 255, 255)" d="M42.998,13.001 C43.000,20.177 37.242,25.997 30.134,25.999 C26.810,26.000 23.779,24.728 21.496,22.638 C19.212,24.724 16.187,25.995 12.869,25.995 C5.765,25.995 0.000,20.175 0.000,13.001 C0.000,5.856 5.720,0.052 12.786,0.005 C12.814,0.005 12.841,0.005 12.869,0.005 C16.187,0.005 19.213,1.277 21.496,3.363 C23.779,1.276 26.806,0.004 30.128,0.003 C37.235,0.000 42.998,5.817 43.000,12.995 C42.998,12.996 42.998,12.997 42.998,13.001 ZM21.494,22.637 C21.504,22.627 21.516,22.618 21.527,22.609 C21.527,22.609 21.526,22.609 21.526,22.609 L21.528,22.609 C21.997,22.177 22.435,21.713 22.835,21.217 L20.178,21.217 C20.586,21.721 21.017,22.202 21.494,22.637 ZM19.220,19.879 L23.786,19.879 C24.063,19.432 24.313,18.968 24.535,18.487 L18.460,18.487 C18.683,18.971 18.942,19.430 19.220,19.879 ZM20.126,16.414 C21.132,16.414 21.574,16.186 21.574,16.186 L21.815,14.852 C21.815,14.852 21.051,15.193 20.360,15.193 C18.889,15.193 19.146,14.085 19.146,14.085 L21.931,14.085 C21.931,14.085 22.111,13.188 22.111,12.823 C22.111,11.912 21.662,10.800 20.158,10.800 C18.780,10.801 17.760,12.300 17.760,13.994 C17.760,15.950 19.037,16.414 20.126,16.414 ZM5.565,9.722 L4.214,13.765 L4.144,9.722 L2.145,9.722 L1.049,16.310 L2.371,16.310 L3.205,11.343 L3.327,16.310 L4.271,16.310 L6.032,11.343 L5.251,16.310 L6.654,16.310 L7.734,9.722 L5.565,9.722 ZM9.789,10.823 C8.850,10.823 8.130,11.128 8.130,11.128 L7.931,12.321 C7.931,12.321 8.525,12.077 9.424,12.077 C9.935,12.077 10.307,12.134 10.307,12.553 C10.307,12.807 10.262,12.901 10.262,12.901 C10.262,12.901 9.860,12.868 9.673,12.868 C8.488,12.868 7.244,13.377 7.244,14.918 C7.244,16.132 8.060,16.409 8.566,16.409 C9.533,16.409 9.951,15.776 9.972,15.775 L9.926,16.304 L11.133,16.304 L11.671,12.493 C11.670,10.875 10.274,10.823 9.789,10.823 ZM13.991,10.833 C12.977,10.833 11.949,11.242 11.949,12.640 C11.949,14.225 13.664,14.063 13.664,14.732 C13.664,15.177 13.185,15.213 12.815,15.213 C12.175,15.213 11.600,14.993 11.598,15.002 L11.415,16.213 C11.448,16.222 11.803,16.382 12.953,16.382 C13.261,16.382 15.025,16.462 15.025,14.624 C15.025,12.904 13.393,13.244 13.393,12.553 C13.393,12.208 13.658,12.101 14.146,12.101 C14.339,12.101 15.082,12.163 15.082,12.163 L15.255,10.942 C15.255,10.942 14.774,10.833 13.991,10.833 ZM17.385,10.148 L16.015,10.148 C15.985,10.178 15.206,14.699 15.206,15.248 C15.206,16.064 15.660,16.426 16.298,16.420 C16.798,16.417 17.188,16.277 17.326,16.238 L17.497,15.062 C17.403,15.062 17.265,15.103 17.144,15.103 C16.667,15.103 16.614,14.846 16.645,14.657 L17.029,12.257 L17.754,12.257 L17.929,10.955 L17.246,10.955 L17.385,10.148 ZM22.770,4.705 L20.326,4.705 C19.997,5.153 19.688,5.630 19.408,6.096 L23.770,6.096 C23.467,5.610 23.133,5.146 22.770,4.705 ZM24.511,7.461 L18.646,7.461 C18.271,8.178 18.022,8.719 17.952,8.854 L25.067,8.854 C24.906,8.375 24.722,7.912 24.511,7.461 ZM25.150,10.891 C24.536,10.891 24.082,11.736 24.082,11.736 L24.205,10.959 L22.929,10.959 L22.074,16.321 L23.481,16.321 C23.879,14.031 23.954,12.172 24.905,12.511 C25.072,11.625 25.232,11.281 25.414,10.907 C25.414,10.907 25.329,10.889 25.150,10.891 ZM28.294,9.575 C26.713,9.575 25.175,10.961 25.175,13.563 C25.175,15.289 26.005,16.428 27.640,16.428 C28.102,16.428 28.839,16.239 28.839,16.239 L29.084,14.729 C29.084,14.729 28.412,15.069 27.951,15.069 C26.978,15.068 26.588,14.319 26.588,13.516 C26.588,11.881 27.424,10.984 28.357,10.984 C29.053,10.984 29.614,11.379 29.614,11.379 L29.837,9.913 C29.837,9.913 29.008,9.575 28.294,9.575 ZM32.000,10.823 C31.059,10.823 30.340,11.128 30.340,11.128 L30.140,12.321 C30.140,12.321 30.735,12.077 31.633,12.077 C32.144,12.077 32.518,12.134 32.518,12.553 C32.518,12.807 32.471,12.901 32.471,12.901 C32.471,12.901 32.069,12.868 31.881,12.868 C30.697,12.868 29.453,13.377 29.453,14.918 C29.453,16.132 30.270,16.409 30.776,16.409 C31.742,16.409 32.159,15.776 32.181,15.775 L32.136,16.304 L33.342,16.304 L33.880,12.493 C33.882,10.875 32.485,10.823 32.000,10.823 ZM36.656,10.889 C36.042,10.889 35.587,11.734 35.587,11.734 L35.709,10.957 L34.433,10.957 L33.578,16.320 L34.984,16.320 C35.384,14.028 35.457,12.170 36.408,12.510 C36.576,11.624 36.737,11.281 36.919,10.907 C36.919,10.908 36.834,10.889 36.656,10.889 ZM40.189,9.729 L39.894,11.580 C39.894,11.580 39.379,10.860 38.571,10.860 C37.314,10.861 36.269,12.389 36.269,14.145 C36.269,15.279 36.827,16.390 37.967,16.390 C38.788,16.390 39.243,15.811 39.243,15.811 L39.183,16.305 L40.516,16.305 L41.564,9.726 L40.189,9.729 ZM41.891,15.703 C41.855,15.635 41.801,15.583 41.735,15.547 C41.669,15.510 41.602,15.492 41.531,15.492 C41.462,15.493 41.394,15.511 41.326,15.547 C41.260,15.583 41.208,15.635 41.171,15.703 C41.134,15.770 41.115,15.840 41.115,15.913 C41.115,15.985 41.134,16.054 41.171,16.121 C41.208,16.187 41.259,16.240 41.325,16.278 C41.391,16.314 41.460,16.333 41.531,16.333 C41.603,16.333 41.673,16.314 41.738,16.278 C41.803,16.240 41.855,16.187 41.891,16.121 C41.929,16.054 41.946,15.985 41.946,15.913 C41.946,15.838 41.928,15.768 41.891,15.703 ZM41.705,16.217 C41.650,16.247 41.593,16.263 41.533,16.263 C41.473,16.263 41.415,16.247 41.361,16.217 C41.305,16.185 41.263,16.142 41.231,16.086 C41.200,16.029 41.185,15.972 41.185,15.912 C41.185,15.852 41.200,15.793 41.233,15.737 C41.264,15.681 41.306,15.638 41.363,15.607 C41.420,15.576 41.476,15.562 41.533,15.562 C41.591,15.562 41.648,15.577 41.702,15.607 C41.759,15.638 41.801,15.680 41.832,15.737 C41.863,15.793 41.880,15.852 41.880,15.912 C41.880,15.972 41.865,16.030 41.833,16.086 C41.803,16.141 41.761,16.183 41.705,16.217 ZM41.672,16.055 C41.646,16.013 41.623,15.983 41.606,15.966 C41.595,15.956 41.584,15.947 41.568,15.942 C41.606,15.939 41.637,15.925 41.660,15.901 C41.682,15.878 41.696,15.847 41.696,15.815 C41.696,15.793 41.689,15.769 41.674,15.749 C41.660,15.729 41.642,15.714 41.619,15.705 C41.597,15.696 41.558,15.691 41.506,15.691 L41.350,15.691 L41.350,16.143 L41.422,16.143 L41.422,15.951 L41.464,15.951 C41.490,15.951 41.510,15.957 41.523,15.966 C41.541,15.983 41.566,16.017 41.599,16.073 L41.637,16.144 L41.727,16.144 L41.672,16.055 ZM41.424,15.889 L41.424,15.752 L41.506,15.752 C41.541,15.752 41.564,15.755 41.579,15.759 C41.590,15.766 41.601,15.772 41.608,15.784 C41.616,15.795 41.619,15.805 41.619,15.820 C41.619,15.840 41.612,15.857 41.598,15.870 C41.581,15.885 41.554,15.889 41.512,15.889 L41.424,15.889 ZM38.452,15.045 C37.958,15.045 37.727,14.627 37.727,13.971 C37.727,12.898 38.204,12.191 38.807,12.191 C39.299,12.191 39.552,12.533 39.552,13.338 C39.552,14.069 39.194,15.045 38.452,15.045 ZM31.325,15.250 C30.899,15.250 30.789,14.923 30.789,14.728 C30.789,14.349 30.992,13.894 31.997,13.894 C32.230,13.895 32.255,13.919 32.295,13.926 C32.321,14.159 32.149,15.250 31.325,15.250 ZM9.112,15.250 C8.687,15.250 8.576,14.923 8.576,14.728 C8.576,14.349 8.780,13.894 9.784,13.894 C10.018,13.895 10.043,13.919 10.082,13.926 C10.109,14.159 9.938,15.250 9.112,15.250 ZM20.162,12.042 C20.935,12.042 20.792,12.919 20.792,12.989 L19.272,12.989 C19.272,12.899 19.415,12.042 20.162,12.042 ZM41.502,19.847 C41.569,19.812 41.636,19.794 41.707,19.794 C41.777,19.794 41.845,19.812 41.911,19.847 C41.977,19.884 42.030,19.935 42.066,20.003 C42.103,20.071 42.121,20.142 42.121,20.213 C42.121,20.285 42.105,20.357 42.068,20.421 C42.030,20.489 41.980,20.541 41.914,20.578 C41.849,20.615 41.779,20.634 41.708,20.634 C41.635,20.634 41.566,20.615 41.501,20.578 C41.436,20.541 41.384,20.489 41.346,20.421 C41.310,20.356 41.291,20.286 41.291,20.213 C41.291,20.140 41.310,20.071 41.347,20.003 C41.383,19.935 41.437,19.884 41.502,19.847 ZM41.526,20.444 L41.599,20.444 L41.599,20.252 L41.641,20.252 C41.666,20.252 41.686,20.258 41.698,20.269 C41.716,20.284 41.743,20.319 41.774,20.374 L41.813,20.445 L41.903,20.445 L41.848,20.356 C41.821,20.315 41.799,20.285 41.781,20.266 C41.771,20.257 41.759,20.247 41.743,20.243 C41.781,20.240 41.813,20.226 41.836,20.202 C41.858,20.177 41.871,20.149 41.871,20.116 C41.871,20.092 41.864,20.070 41.850,20.049 C41.837,20.028 41.818,20.013 41.793,20.005 C41.771,19.996 41.733,19.992 41.681,19.992 L41.526,19.992 L41.526,20.444 ZM41.752,20.064 C41.766,20.070 41.775,20.078 41.783,20.088 C41.790,20.098 41.793,20.110 41.793,20.123 C41.793,20.143 41.786,20.161 41.771,20.174 C41.756,20.185 41.727,20.192 41.686,20.192 L41.597,20.192 L41.597,20.056 L41.681,20.056 C41.715,20.056 41.738,20.059 41.752,20.064 Z"/></svg>
