<svg xmlns="http://www.w3.org/2000/svg" width="26px" height="26px" viewBox="0 0 26 26"><path fill-rule="evenodd" fill="#a70407" d="M25.328,12.346 C25.285,12.351 25.247,12.357 25.203,12.357 C24.848,12.357 24.537,12.105 24.477,11.744 C24.045,9.192 22.844,6.865 20.999,5.015 C19.153,3.170 16.833,1.960 14.289,1.527 C13.885,1.456 13.617,1.079 13.683,0.673 C13.754,0.274 14.130,-0.000 14.529,0.071 C17.379,0.558 19.972,1.905 22.036,3.975 C24.100,6.044 25.443,8.645 25.929,11.503 C26.000,11.902 25.727,12.286 25.328,12.346 ZM14.327,4.774 C16.058,5.070 17.635,5.891 18.886,7.145 C20.136,8.398 20.955,9.981 21.250,11.716 C21.315,12.121 21.048,12.504 20.644,12.570 C20.600,12.576 20.562,12.581 20.518,12.581 C20.163,12.581 19.852,12.329 19.792,11.968 C19.546,10.534 18.875,9.231 17.838,8.190 C16.800,7.150 15.501,6.471 14.070,6.230 C13.666,6.165 13.404,5.776 13.475,5.376 C13.546,4.977 13.923,4.708 14.327,4.774 ZM9.435,9.652 C9.031,10.063 8.616,10.490 8.168,10.900 C8.501,11.640 8.960,12.368 9.642,13.233 C11.051,14.968 12.520,16.310 14.136,17.339 C14.294,17.437 14.480,17.530 14.676,17.629 C14.813,17.700 14.955,17.771 15.097,17.848 L16.822,16.123 C17.373,15.570 18.018,15.280 18.689,15.280 C19.366,15.280 20.005,15.576 20.535,16.129 L23.532,19.145 C24.084,19.693 24.373,20.344 24.373,21.023 C24.373,21.697 24.089,22.354 23.549,22.918 C23.314,23.164 23.073,23.399 22.839,23.624 C22.495,23.958 22.167,24.270 21.883,24.615 C21.878,24.626 21.867,24.631 21.861,24.642 C21.032,25.546 19.972,26.000 18.711,26.000 C18.602,26.000 18.482,25.994 18.367,25.989 C16.494,25.869 14.818,25.162 13.562,24.566 C10.276,22.972 7.398,20.711 5.007,17.848 C3.036,15.472 1.714,13.255 0.830,10.862 C0.470,9.888 0.000,8.398 0.131,6.800 C0.218,5.809 0.617,4.955 1.316,4.254 L3.172,2.376 C3.178,2.371 3.178,2.371 3.183,2.365 C3.729,1.840 4.373,1.560 5.040,1.560 C5.706,1.560 6.339,1.840 6.869,2.365 C7.224,2.694 7.567,3.044 7.895,3.383 C8.059,3.559 8.233,3.734 8.403,3.904 L9.893,5.398 C11.040,6.548 11.040,8.037 9.893,9.187 C9.740,9.340 9.588,9.499 9.435,9.652 ZM8.856,6.444 L7.365,4.949 C7.191,4.769 7.016,4.594 6.847,4.418 C6.514,4.073 6.197,3.750 5.864,3.438 C5.858,3.433 5.853,3.427 5.848,3.422 C5.673,3.247 5.394,3.038 5.050,3.038 C4.772,3.038 4.488,3.175 4.220,3.427 L2.359,5.294 C1.906,5.748 1.660,6.280 1.605,6.920 C1.523,7.922 1.709,8.984 2.217,10.347 C3.041,12.581 4.286,14.662 6.148,16.912 C8.403,19.611 11.116,21.741 14.207,23.241 C15.337,23.783 16.844,24.418 18.465,24.522 C18.547,24.527 18.635,24.527 18.716,24.527 C19.568,24.527 20.218,24.248 20.769,23.657 C21.108,23.257 21.468,22.901 21.823,22.562 C22.058,22.332 22.276,22.124 22.489,21.894 C23.046,21.314 23.046,20.739 22.484,20.180 L19.475,17.164 C19.470,17.158 19.470,17.158 19.465,17.153 C19.295,16.966 19.017,16.753 18.678,16.753 C18.334,16.753 18.039,16.977 17.854,17.164 L15.987,19.036 C15.894,19.129 15.610,19.414 15.157,19.414 C14.977,19.414 14.802,19.370 14.616,19.277 C14.594,19.266 14.572,19.250 14.551,19.238 C14.392,19.140 14.207,19.047 14.010,18.948 C13.792,18.839 13.562,18.724 13.339,18.582 C11.586,17.470 9.997,16.019 8.490,14.158 L8.485,14.152 C7.655,13.096 7.109,12.209 6.721,11.267 C6.716,11.251 6.710,11.234 6.705,11.218 C6.606,10.906 6.519,10.446 6.989,9.975 C6.994,9.964 7.005,9.959 7.016,9.948 C7.491,9.521 7.928,9.083 8.386,8.612 C8.545,8.459 8.698,8.300 8.856,8.141 C9.435,7.561 9.435,7.024 8.856,6.444 Z"/></svg>
