<svg xmlns="http://www.w3.org/2000/svg" width="54px" height="17px" viewBox="0 0 54 17"> <path fill-rule="evenodd"  fill="rgb(255, 255, 255)" d="M49.928,16.762 C49.928,16.762 49.524,14.870 49.393,14.295 C48.755,14.295 44.277,14.288 43.772,14.288 C43.602,14.733 42.850,16.762 42.850,16.762 L38.241,16.762 L44.758,1.668 C45.221,0.595 46.004,0.301 47.057,0.301 L50.449,0.301 L54.000,16.762 L49.928,16.762 ZM47.665,6.162 L47.369,4.741 C47.142,5.361 46.760,6.359 46.784,6.314 C46.784,6.314 45.397,9.972 45.035,10.917 L48.682,10.917 C48.506,10.094 47.665,6.162 47.665,6.162 ZM38.194,4.071 C37.386,3.738 36.345,3.417 34.909,3.440 C33.191,3.440 32.394,4.172 32.394,4.857 C32.385,5.628 33.324,6.136 34.859,6.900 C37.396,8.072 38.567,9.500 38.547,11.372 C38.516,14.793 35.518,17.000 30.904,17.000 C28.936,16.979 27.041,16.583 26.013,16.123 L26.631,12.436 L27.196,12.700 C28.638,13.314 29.572,13.562 31.329,13.562 C32.590,13.562 33.940,13.056 33.954,11.954 C33.962,11.232 33.388,10.718 31.678,9.910 C30.012,9.122 27.806,7.801 27.834,5.435 C27.858,2.234 30.915,-0.000 35.252,-0.000 C36.952,-0.000 38.315,0.358 39.184,0.692 L38.590,4.261 L38.194,4.071 ZM18.878,16.753 L21.622,0.283 L26.013,0.283 L23.267,16.753 L18.878,16.753 ZM8.291,16.745 L4.360,3.010 C7.185,4.859 9.592,7.794 10.440,9.837 L10.898,11.533 L15.197,0.301 L19.847,0.298 L12.935,16.737 L8.291,16.745 ZM0.000,0.470 L0.056,0.142 L6.861,0.142 C7.779,0.178 8.519,0.477 8.774,1.480 L10.254,8.756 C8.800,4.949 5.296,1.784 0.000,0.470 Z"/></svg>
