<svg 
 xmlns="http://www.w3.org/2000/svg"
 xmlns:xlink="http://www.w3.org/1999/xlink"
 width="19px" height="18px">
<path fill-rule="evenodd"  fill="rgb(167, 4, 7)"
 d="M19.000,16.378 L16.684,14.154 L14.840,12.384 C15.789,11.102 16.352,9.540 16.352,7.851 C16.352,3.522 12.684,-0.000 8.176,-0.000 C3.667,-0.000 -0.000,3.522 -0.000,7.851 C-0.000,12.179 3.667,15.701 8.176,15.701 C10.059,15.701 11.790,15.081 13.174,14.049 L16.344,17.093 C16.383,17.131 16.427,17.161 16.469,17.192 L17.311,18.000 L19.000,16.378 ZM8.176,13.854 C4.729,13.854 1.924,11.161 1.924,7.851 C1.924,4.541 4.729,1.848 8.176,1.848 C11.624,1.848 14.428,4.541 14.428,7.851 C14.428,9.228 13.938,10.495 13.122,11.509 C12.853,11.844 12.550,12.153 12.214,12.427 C11.124,13.315 9.715,13.854 8.176,13.854 Z"/>
</svg>