<?xml version="1.0" encoding="utf-8"?>
<!-- Generator: Adobe Illustrator 21.1.0, SVG Export Plug-In . SVG Version: 6.00 Build 0)  -->
<svg version="1.1" id="Слой_1" xmlns="http://www.w3.org/2000/svg" xmlns:xlink="http://www.w3.org/1999/xlink" x="0px" y="0px"
	 viewBox="0 0 62 62" style="enable-background:new 0 0 62 62;" xml:space="preserve">
<style type="text/css">
	.st0{stroke:#a70407;stroke-width:0.75;stroke-miterlimit:10;}
</style>
<path class="st0" d="M49,43.9l-9.5-4.8c-0.9-0.4-1.5-1.4-1.5-2.4v-3.4c1.6-2,2.8-4.3,3.7-6.8C43.1,26,44,24.6,44,23v-4
	c0-1-0.4-1.9-1-2.6v-5.3c0.1-0.6,0.3-3.8-2.1-6.5C38.9,2.2,35.5,1,31,1s-7.9,1.2-9.9,3.5c-1.5,1.8-2.3,4.2-2.1,6.5v5.3
	c-0.6,0.7-1,1.7-1,2.6v4c0,1.2,0.5,2.4,1.5,3.1c0.7,2.6,1.9,5.1,3.5,7.2v3.3c0,1-0.5,1.9-1.4,2.3l-8.9,4.9C9.8,45.4,8,48.5,8,51.8
	V55c0,4.8,15,6,23,6s23-1.3,23-6v-3C54,48.5,52.1,45.4,49,43.9z M52,55c0,1.4-7.4,4-21,4s-21-2.6-21-4v-3.2c0-2.6,1.4-4.9,3.7-6.2
	l8.9-4.9c1.5-0.8,2.4-2.4,2.4-4.1v-4l-0.2-0.3c0,0-2.5-3-3.4-7.1l-0.1-0.4l-0.3-0.2c-0.6-0.4-0.9-1-0.9-1.7v-4
	c0-0.6,0.2-1.1,0.7-1.5l0.3-0.3v-6.3c0,0-0.4-2.8,1.6-5C24.2,4,27.1,3,31,3c3.9,0,6.7,1,8.4,2.8c1.9,2.2,1.6,5,1.6,5v6.4l0.3,0.3
	c0.4,0.4,0.7,0.9,0.7,1.5v4c0,0.9-0.6,1.6-1.4,1.9L40.1,25l-0.2,0.5c-0.8,2.5-2,4.8-3.7,6.8L36,32.6v4.1c0,1.8,1,3.4,2.6,4.2
	l9.5,4.8c2.4,1.2,3.9,3.6,3.9,6.3V55z"/>
</svg>
