<svg xmlns="http://www.w3.org/2000/svg" width="40" height="48" viewBox="0 0 40 48"><path fill-rule="evenodd" d="M36.441,22.172 C36.951,22.261 37.290,22.739 37.199,23.239 L35.260,33.874 C35.179,34.319 34.784,34.632 34.339,34.632 C34.284,34.632 34.228,34.627 34.173,34.617 C33.663,34.528 33.323,34.050 33.415,33.550 L35.353,22.915 C35.445,22.416 35.930,22.082 36.441,22.172 ZM13.661,34.632 C13.216,34.632 12.821,34.319 12.740,33.874 L10.801,23.239 C10.710,22.739 11.049,22.261 11.559,22.172 C12.068,22.082 12.556,22.416 12.647,22.915 L14.585,33.550 C14.677,34.050 14.337,34.528 13.828,34.617 C13.772,34.627 13.716,34.632 13.661,34.632 ZM45.787,18.601 L42.428,35.660 C41.933,38.175 39.679,40.000 37.068,40.000 L27.769,40.000 C27.251,40.000 26.832,39.588 26.832,39.080 C26.832,38.572 27.251,38.161 27.769,38.161 L37.068,38.161 C38.782,38.161 40.262,36.963 40.587,35.312 L43.864,18.666 L4.136,18.666 L7.413,35.312 C7.738,36.963 9.218,38.161 10.932,38.161 L19.594,38.161 C20.112,38.161 20.531,38.572 20.531,39.080 C20.531,39.588 20.112,40.000 19.594,40.000 L10.932,40.000 C8.321,40.000 6.067,38.175 5.572,35.660 L2.213,18.601 C0.950,18.331 -0.000,17.225 -0.000,15.906 L-0.000,12.963 C-0.000,11.442 1.262,10.205 2.813,10.205 L4.719,10.205 C5.236,10.205 5.656,10.616 5.656,11.124 C5.656,11.632 5.236,12.044 4.719,12.044 L2.813,12.044 C2.296,12.044 1.875,12.456 1.875,12.963 L1.875,15.906 C1.875,16.413 2.296,16.825 2.813,16.825 L45.187,16.825 C45.704,16.825 46.125,16.413 46.125,15.906 L46.125,12.963 C46.125,12.456 45.704,12.044 45.187,12.044 L42.969,12.044 C42.451,12.044 42.031,11.632 42.031,11.124 C42.031,10.616 42.451,10.205 42.969,10.205 L45.187,10.205 C46.738,10.205 48.000,11.442 48.000,12.963 L48.000,15.906 C48.000,17.225 47.050,18.331 45.787,18.601 ZM37.427,15.354 C36.641,15.354 35.902,15.054 35.346,14.509 L32.822,12.033 C32.777,12.039 32.732,12.044 32.685,12.044 L15.167,12.044 L12.654,14.509 C12.098,15.054 11.359,15.354 10.573,15.354 C9.787,15.354 9.049,15.054 8.493,14.509 C7.345,13.383 7.345,11.552 8.493,10.427 L17.975,1.125 C19.123,0.000 20.990,0.000 22.137,1.125 C23.284,2.251 23.284,4.082 22.137,5.208 L17.042,10.205 L30.958,10.205 L25.863,5.208 C24.716,4.082 24.716,2.251 25.863,1.125 C27.010,0.000 28.877,0.000 30.025,1.125 L39.507,10.427 C40.655,11.552 40.654,13.383 39.507,14.509 C38.951,15.054 38.212,15.354 37.427,15.354 ZM20.811,3.907 C21.227,3.499 21.227,2.834 20.811,2.426 C20.603,2.222 20.330,2.120 20.056,2.120 C19.782,2.120 19.509,2.222 19.301,2.426 L9.818,11.727 C9.402,12.136 9.402,12.800 9.819,13.208 C10.020,13.406 10.288,13.515 10.573,13.515 C10.859,13.515 11.127,13.406 11.329,13.208 L20.811,3.907 ZM38.182,11.727 L28.699,2.426 C28.491,2.222 28.217,2.120 27.944,2.120 C27.671,2.120 27.397,2.222 27.189,2.426 C26.773,2.834 26.773,3.499 27.189,3.907 L36.671,13.208 C36.873,13.406 37.141,13.515 37.427,13.515 C37.712,13.515 37.980,13.406 38.181,13.208 C38.598,12.800 38.598,12.135 38.182,11.727 ZM19.294,33.712 L19.294,23.077 C19.294,22.569 19.713,22.158 20.231,22.158 C20.749,22.158 21.169,22.569 21.169,23.077 L21.169,33.712 C21.169,34.220 20.749,34.631 20.231,34.631 C19.713,34.631 19.294,34.220 19.294,33.712 ZM23.819,38.161 C24.066,38.161 24.307,38.259 24.482,38.430 C24.656,38.601 24.757,38.839 24.757,39.081 C24.757,39.322 24.656,39.559 24.482,39.731 C24.307,39.902 24.066,40.000 23.819,40.000 C23.572,40.000 23.330,39.902 23.156,39.731 C22.982,39.559 22.881,39.322 22.881,39.081 C22.881,38.838 22.982,38.601 23.156,38.430 C23.330,38.259 23.572,38.161 23.819,38.161 ZM27.769,22.158 C28.015,22.158 28.257,22.256 28.431,22.427 C28.606,22.598 28.706,22.835 28.706,23.077 C28.706,23.319 28.606,23.556 28.431,23.727 C28.257,23.898 28.015,23.997 27.769,23.997 C27.522,23.997 27.280,23.898 27.106,23.727 C26.931,23.556 26.831,23.319 26.831,23.077 C26.831,22.835 26.932,22.598 27.106,22.427 C27.280,22.256 27.522,22.158 27.769,22.158 ZM27.769,25.752 C28.287,25.752 28.706,26.164 28.706,26.672 L28.706,33.712 C28.706,34.220 28.287,34.632 27.769,34.632 C27.251,34.632 26.831,34.220 26.831,33.712 L26.831,26.672 C26.831,26.164 27.251,25.752 27.769,25.752 Z"/></svg>
